<?xml version="1.0" encoding="UTF-8"?>
<svg id="_레이어_2" data-name="레이어 2" xmlns="http://www.w3.org/2000/svg" viewBox="0 0 323.3 338.54">
  <defs>
    <style>
      .cls-1 {
        fill: #fff;
      }

      .cls-1, .cls-2, .cls-3, .cls-4, .cls-5 {
        stroke: #000;
        stroke-miterlimit: 10;
        stroke-width: 3px;
      }

      .cls-2 {
        fill: #e80054;
      }

      .cls-3 {
        fill: #3c58a0;
      }

      .cls-6, .cls-5 {
        fill: #ebf5fc;
      }

      .cls-4 {
        fill: #ff4155;
      }
    </style>
  </defs>
  <g id="_레이어_1-2" data-name="레이어 1">
    <rect class="cls-1" x="1.5" y="25.23" width="320.3" height="311.82" rx="33.19" ry="33.19"/>
    <path class="cls-6" d="M320.38,121.3v188.75c0,9.01-14.32,23.85-23.68,24.72-88.08,2.24-176.59.35-264.83.95-11.23.58-28.68-14.79-28.68-25.68V121.3h317.18ZM64.82,160.96c-5.88.85-12.02,5.13-13.46,11.11-1.1,4.58-.98,17.61-.54,22.6.53,6.03,5.69,12.54,11.75,13.57,4.52.76,17.43.69,22.16.18,14.94-1.61,14.89-20.33,13.77-31.64-1.71-17.23-19.99-17.8-33.68-15.82ZM152.69,160.98c-6.84.86-12.94,5.35-14.4,12.4-.86,4.16-.83,16.86-.33,21.27.73,6.52,6.54,12.81,13.1,13.71,4.48.61,16.22.58,20.78.07,6.52-.73,12.81-6.54,13.71-13.1.59-4.35.56-15.62.07-20.04-1.8-16.01-20.6-15.85-32.92-14.31ZM239.79,160.96c-8.36,1.15-13.88,7.54-14.7,15.82-1.09,10.98-1.27,29.62,13.09,31.57,4.7.64,16.73.58,21.53.07,5.89-.63,12.15-6.43,12.96-12.35.63-4.62.6-16.83.07-21.53-1.72-15.28-21.36-15.17-32.94-13.58ZM62.57,248.8c-4.12.7-8.65,4.48-10.36,8.25-1.94,4.3-1.95,20.27-1.36,25.45,1.69,14.98,20.19,14.9,31.64,13.77,8.58-.85,14.93-6.66,15.93-15.34,1.24-10.75,1.46-29.82-12.38-32.13-4.33-.73-19.15-.73-23.47,0ZM149.67,248.79c-4.93,1-10.69,7.3-11.53,12.29-.91,5.42-.73,21,1.41,25.79,2.87,6.42,8.38,8.9,15.14,9.43,12.11.95,29.18,1.05,30.93-14.54.5-4.42.52-15.69-.07-20.04-.72-5.3-6.4-11.86-11.64-12.93-3.35-.68-20.89-.68-24.23,0ZM237.54,248.8c-13.74,2.3-13.51,20.8-12.46,31.46,1.68,16.95,18.17,17.22,31.62,16,7.42-.67,14.86-5.11,15.95-13.08.64-4.68.58-16.74.07-21.53-.6-5.6-6.16-11.91-11.72-12.85-4.34-.73-19.12-.73-23.47,0Z"/>
    <path class="cls-4" d="M41.17,25.49v12.35c0,16.98,20.73,28.88,36.3,27.31,11.04-1.11,27.33-14.26,27.33-25.82v-13.85h112.28v13.85c0,10.91,15.61,24.22,26.02,25.63,16.07,2.18,37.61-9.53,37.61-27.13v-12.35c15.78-1.62,30.74,4.08,37.32,19.2.49,1.13,2.35,5.9,2.35,6.63v54.27H1.5v-54.27c0-.73,1.86-5.5,2.35-6.63,6.63-15.23,21.41-20.75,37.32-19.2Z"/>
    <path class="cls-5" d="M70.17,1.72c6.94-1.16,14.69,2.42,17.56,9.03,1.94,4.48,1.88,18.85,1.35,24.08-1.95,19.28-30.14,20.08-32.17-1.5-1.07-11.43-1.28-29.2,13.26-31.62Z"/>
    <path class="cls-5" d="M246.09,1.74c19.14-2.68,20.16,17.93,18.88,31.6-2.02,21.58-30.21,20.78-32.17,1.5-.51-5.05-.57-19.19,1.12-23.56,1.84-4.75,7.19-8.85,12.16-9.54Z"/>
    <path class="cls-3" d="M61.19,249.48c4.34-.74,19.24-.73,23.6,0,13.92,2.33,13.7,21.49,12.45,32.3-1.01,8.72-7.39,14.56-16.02,15.42-11.51,1.14-30.11,1.22-31.81-13.84-.59-5.21-.58-21.26,1.37-25.58,1.72-3.8,6.27-7.59,10.41-8.3Z"/>
    <path class="cls-3" d="M148.76,249.47c3.37-.68,21-.68,24.36,0,5.27,1.07,10.98,7.67,11.71,13,.6,4.37.57,15.7.07,20.15-1.76,15.67-18.92,15.57-31.09,14.62-6.8-.53-12.34-3.02-15.22-9.48-2.15-4.81-2.33-20.48-1.41-25.93.84-5.02,6.64-11.35,11.59-12.36Z"/>
    <path class="cls-3" d="M239.35,161.17c11.64-1.6,31.39-1.71,33.12,13.65.53,4.73.57,17-.07,21.64-.81,5.95-7.11,11.78-13.03,12.42-4.83.52-16.92.58-21.64-.07-14.43-1.97-14.26-20.7-13.16-31.74.83-8.33,6.37-14.75,14.78-15.91Z"/>
    <path class="cls-3" d="M151.79,161.19c12.39-1.55,31.29-1.71,33.1,14.38.5,4.44.53,15.78-.07,20.15-.9,6.59-7.22,12.43-13.78,13.17-4.59.52-16.39.55-20.9-.07-6.59-.9-12.43-7.22-13.17-13.78-.5-4.43-.53-17.2.33-21.38,1.46-7.09,7.6-11.61,14.48-12.47Z"/>
    <path class="cls-3" d="M63.45,161.17c13.76-1.99,32.14-1.41,33.86,15.91,1.13,11.37,1.18,30.19-13.84,31.81-4.75.51-17.73.59-22.28-.18-6.09-1.03-11.28-7.58-11.81-13.64-.44-5.02-.56-18.12.54-22.72,1.45-6.02,7.62-10.32,13.53-11.17Z"/>
    <path class="cls-3" d="M237.09,249.48c4.37-.73,19.23-.74,23.6,0,5.6.95,11.18,7.29,11.78,12.92.52,4.82.58,16.94-.07,21.64-1.1,8.02-8.58,12.48-16.04,13.15-13.53,1.23-30.1.96-31.79-16.09-1.06-10.72-1.29-29.32,12.52-31.63Z"/>
    <rect class="cls-2" x="3.2" y="105.58" width="318.37" height="15.72"/>
  </g>
</svg>